<?xml version="1.0" ?><svg style="enable-background:new 0 0 512 512;" version="1.1" viewBox="0 0 512 512" xml:space="preserve" xmlns="http://www.w3.org/2000/svg" xmlns:xlink="http://www.w3.org/1999/xlink"><style type="text/css">
	.st0{fill:#1E1E1E;}
	.st1{fill:#464646;stroke:#21759B;stroke-width:2;stroke-miterlimit:10;}
	.st2{fill:#FFFFFF;}
</style><g id="Edges"/><g id="Background_Bottom"><g><path class="st0" d="M492.3,443.1c0,34.2-27.7,61.9-61.9,61.9H80.7c-34.2,0-61.9-27.7-61.9-61.9V93.4c0-34.2,27.7-61.9,61.9-61.9    h349.7c34.2,0,61.9,27.7,61.9,61.9V443.1z"/></g></g><g id="Background"><path class="st1" d="M492.3,418.4c0,34.2-27.7,61.9-61.9,61.9H80.7c-34.2,0-61.9-27.7-61.9-61.9V68.6c0-34.2,27.7-61.9,61.9-61.9   h349.7c34.2,0,61.9,27.7,61.9,61.9V418.4z"/></g><g id="Symbol"><g><path class="st2" d="M252.7,268.6c4.6,6.7,9,13.2,13.7,20c12.9-25.5,25.7-50.8,38.6-76.3c14,27.6,27.8,55,41.8,82.5    c-0.7,0-1.1,0.1-1.6,0.1c-7.3,0-14.5,0-21.8,0c-1,0-1.6-0.4-2-1.3c-5-9.9-10-19.8-15-29.7c-0.4-0.8-0.9-1.6-1.4-2.6    c-0.3,0.6-0.6,1-0.8,1.4c-5.2,10.4-10.5,20.8-15.7,31.2c-0.4,0.8-0.8,1-1.6,1c-14.8,0-29.6,0-44.4,0c-0.8,0-1.3-0.2-1.8-0.9    c-4.4-6.7-8.9-13.4-13.3-20.2c-0.6-0.9-1.3-1.3-2.4-1.2c-0.9,0.1-1.8,0.1-2.7,0c-1.2-0.1-1.6,0.3-1.6,1.6c0.1,6.3,0,12.7,0,19    c0,1.8,0,1.8-1.8,1.8c-7.5,0-14.9,0-22.4,0c-1.2,0-1.6-0.3-1.6-1.6c0-24.9,0-49.9,0-74.8c0-0.9,0-1.5,1.2-1.5    c13.9,0.1,27.8,0,41.7,0.2c6.8,0.1,13.3,1.7,19.1,5.5c7.1,4.6,10.7,11.3,11.1,19.7c0.2,3.3,0,6.5-0.9,9.7    c-2,7.3-6.8,12.2-13.2,15.7C253.6,268.1,253.3,268.4,252.7,268.6z M220.8,246.6c0,2.1,0.1,4.1,0,6.2c0,1.2,0.3,1.6,1.5,1.6    c3.1-0.1,6.2,0.1,9.4-0.1c1.9-0.1,3.9-0.3,5.7-0.9c3.5-1.1,5.2-3.9,5-7.4c-0.2-3.5-2.1-5.8-5.8-6.7c-0.9-0.2-1.8-0.4-2.7-0.4    c-4-0.1-7.9,0-11.9-0.1c-0.9,0-1.2,0.3-1.2,1.2C220.8,242.2,220.8,244.4,220.8,246.6z"/><path class="st2" d="M59.9,267.2c2.2,1.4,4.2,2.7,6.4,3.9c7.2,3.8,14.9,5.4,23.1,5c1.2-0.1,2.4-0.5,3.5-1c1.7-0.9,1.9-3.2,0.4-4.4    c-1-0.8-2.3-1.5-3.6-1.8c-4.5-1.2-9.1-2.1-13.6-3.3c-5.1-1.3-10.1-2.7-14.7-5.4c-5.6-3.2-9.7-7.6-10.6-14.3    c-1.7-12.1,4.3-22.4,15.7-27.1c4.8-2,9.9-2.9,15-3c7.6-0.2,15.1,0.4,22.4,2.8c5.3,1.7,10.2,4.2,14.7,7.8    c-4.2,5.8-8.3,11.6-12.5,17.4c-0.9-0.6-1.8-1.2-2.7-1.7c-6.5-3.9-13.5-5.9-21-5.9c-1.2,0-2.4,0.2-3.5,0.6c-2.5,1-2.9,3.7-0.7,5.1    c1.4,0.9,3.2,1.6,4.9,2c4.9,1.2,9.9,2.1,14.8,3.4c4.6,1.2,9,2.8,13,5.4c6.4,4.1,9.8,9.9,9.7,17.6c-0.1,8.7-3.7,15.6-11.1,20.4    c-3.9,2.6-8.3,4.2-12.9,4.9c-14.7,2.2-28.8,0.6-42.1-6.4c-2.4-1.3-4.6-3.1-6.9-4.6c-0.4-0.3-0.7-0.7-1.2-1.1    C50.9,278,55.4,272.6,59.9,267.2z"/><path class="st2" d="M155.3,217.2c11.4,0,22.7,0,34.1,0c1.8,0,1.8,0,1.8,1.7c0,6.2,0,12.4,0,18.6c0,1.2-0.3,1.6-1.6,1.6    c-6.7-0.1-13.3,0-20-0.1c-1.2,0-1.5,0.4-1.5,1.5c0,17.6,0,35.2,0,52.8c0,1.7,0,1.7-1.7,1.7c-7.4,0-14.9,0-22.3,0    c-1.8,0-1.8,0-1.8-1.8c0-17.4,0-34.9,0-52.3c0-1.9,0-1.9-1.9-1.9c-6.5,0-13.1,0-19.6,0c-1.1,0-1.5-0.3-1.5-1.5    c0.1-6.3,0.1-12.6,0-18.9c0-1.2,0.3-1.6,1.6-1.6C132.3,217.2,143.8,217.2,155.3,217.2z"/><path class="st2" d="M321.7,217.3c0.6,0,1.1-0.1,1.5-0.1c7.3,0,14.5,0,21.8,0c1.2,0,1.7,0.4,2.2,1.4c5,9.9,10,19.9,15.1,29.8    c0.4,0.7,0.8,1.5,1.3,2.4c0.3-0.6,0.6-1,0.8-1.5c5.2-10.4,10.5-20.8,15.8-31.1c0.2-0.4,0.8-0.9,1.2-0.9c7.7-0.1,15.4,0,23.2,0    c0.2,0,0.3,0.1,0.7,0.1c-13.9,27.5-27.7,54.9-41.7,82.5C349.5,272.2,335.7,244.8,321.7,217.3z"/><path class="st2" d="M463.7,295c-0.7,0-1.1,0.1-1.5,0.1c-7.3,0-14.5,0-21.8,0c-1,0-1.6-0.3-2-1.2c-5.1-10.2-10.3-20.4-15.5-30.6    c-0.3-0.5-0.5-1-0.9-1.8c-0.4,0.7-0.6,1.1-0.9,1.6c-5.2,10.3-10.4,20.6-15.6,30.9c-0.4,0.7-0.7,1.1-1.6,1.1c-7.6,0-15.1,0-22.7,0    c-0.2,0-0.5,0-1-0.1c13.9-27.5,27.8-54.9,41.8-82.5C435.9,240,449.8,267.4,463.7,295z"/></g></g></svg>